<?xml version="1.0" ?><!DOCTYPE svg  PUBLIC '-//W3C//DTD SVG 1.1//EN'  'http://www.w3.org/Graphics/SVG/1.1/DTD/svg11.dtd'><svg enable-background="new 0 0 64 64" height="64px" id="Layer_1" version="1.1" viewBox="0 0 64 64" width="64px" xml:space="preserve" xmlns="http://www.w3.org/2000/svg" xmlns:xlink="http://www.w3.org/1999/xlink"><path d="M56.826,32C56.826,18.311,45.689,7.174,32,7.174S7.174,18.311,7.174,32S18.311,56.826,32,56.826S56.826,45.689,56.826,32z   M34.437,31.962c0,1.301-1.054,2.356-2.356,2.356c-1.301,0-2.356-1.055-2.356-2.356V19.709c0-1.301,1.055-2.356,2.356-2.356  c1.301,0,2.356,1.054,2.356,2.356V31.962z M48.031,32.041c0,8.839-7.191,16.03-16.031,16.03s-16.031-7.191-16.031-16.03  c0-4.285,1.669-8.313,4.701-11.34c0.46-0.46,1.062-0.689,1.665-0.689s1.207,0.23,1.667,0.691c0.92,0.921,0.919,2.412-0.002,3.332  c-2.139,2.138-3.318,4.981-3.318,8.006c0,6.24,5.077,11.317,11.318,11.317s11.318-5.077,11.318-11.317  c0-3.023-1.176-5.865-3.314-8.003c-0.92-0.921-0.919-2.412,0.001-3.333c0.921-0.921,2.412-0.919,3.333,0.001  C46.364,23.734,48.031,27.76,48.031,32.041z"/></svg>