<?xml version="1.0" ?><svg height="512" id="svg2" version="1.1" width="512" xmlns="http://www.w3.org/2000/svg" xmlns:cc="http://creativecommons.org/ns#" xmlns:dc="http://purl.org/dc/elements/1.1/" xmlns:inkscape="http://www.inkscape.org/namespaces/inkscape" xmlns:rdf="http://www.w3.org/1999/02/22-rdf-syntax-ns#" xmlns:sodipodi="http://sodipodi.sourceforge.net/DTD/sodipodi-0.dtd" xmlns:svg="http://www.w3.org/2000/svg" viewBox="0 0 512 512"><defs id="defs4"/><g id="layer1" transform="translate(0,-540.36218)"><g id="g3016" transform="matrix(-1,0,0,1,502.69953,6.6120369e-6)"/><g id="g3042"><path d="M 257.15625 37.5625 C 222.89831 37.380099 188.62002 45.341325 157.28125 61.46875 L 171.03125 88.1875 C 221.1299 62.405946 279.91541 60.816167 331.03125 83.375 L 315.40625 102.1875 L 410.96875 128.875 L 367.1875 39.84375 L 350.84375 59.53125 C 321.30351 45.082652 289.24126 37.733332 257.15625 37.5625 z " id="path3026" style="fill:#000000;stroke:none" transform="translate(0,540.36218)"/><path d="m 450.53125,697.64343 -26.71875,13.75 c 25.78155,50.09865 27.37133,108.88416 4.8125,160 l -18.8125,-15.625 -26.6875,95.5625 89.03125,-43.78125 -19.6875,-16.34375 c 29.87571,-61.08107 29.29441,-132.87273 -1.9375,-193.5625 z" id="path3038" style="fill:#000000;stroke:none"/><path d="m 101.03125,923.4872 43.78125,89.0313 16.34375,-19.68755 c 61.08107,29.87575 132.87273,29.29445 193.5625,-1.9375 l -13.75,-26.71875 c -50.09865,25.78155 -108.88416,27.37133 -160,4.8125 l 15.625,-18.8125 -95.5625,-26.6875 z" id="path3044" style="fill:#000000;stroke:none"/><path d="m 128.875,641.39345 -89.03125,43.78125 19.6875,16.34375 c -29.875714,61.08107 -29.294413,132.87273 1.9375,193.5625 l 26.71875,-13.75 c -25.781554,-50.09865 -27.371333,-108.88416 -4.8125,-160 l 18.8125,15.625 26.6875,-95.5625 z" id="path3008" style="fill:#000000;stroke:none"/></g></g></svg>
