<?xml version="1.0" ?><!DOCTYPE svg  PUBLIC '-//W3C//DTD SVG 1.1//EN'  'http://www.w3.org/Graphics/SVG/1.1/DTD/svg11.dtd'><svg enable-background="new 0 0 64 64" height="64px" id="Layer_1" version="1.1" viewBox="0 0 64 64" width="64px" xml:space="preserve" xmlns="http://www.w3.org/2000/svg" xmlns:xlink="http://www.w3.org/1999/xlink"><g><path d="M51,29.997c-4.411,0-8,3.589-8,8v1.461c-1.771-0.633-5.197-1.461-11-1.461c-5.803,0-9.228,0.828-11,1.461v-1.461   c0-4.411-3.589-8-8-8c-2.757,0-5,2.243-5,5c0,2.025,1.208,3.838,3.079,4.617C11.639,39.849,12,40.392,12,40.997l1,4   c0,3.59,2.719,6.555,6.206,6.952c-0.821,0.392-1.393,1.224-1.393,2.194c0,1.346,1.092,2.438,2.438,2.438   c1.346,0,2.438-1.092,2.438-2.438c0-0.934-0.532-1.736-1.304-2.146h21.233c-0.772,0.409-1.304,1.211-1.304,2.146   c0,1.346,1.092,2.438,2.438,2.438c1.346,0,2.438-1.092,2.438-2.438c0-0.97-0.572-1.802-1.393-2.194   C48.281,51.552,51,48.587,51,44.997l1-4c0-0.606,0.361-1.148,0.921-1.383C54.792,38.836,56,37.022,56,34.997   C56,32.24,53.757,29.997,51,29.997z"/><path d="M23.75,35.659c2.081-0.38,4.79-0.662,8.25-0.662c3.46,0,6.169,0.282,8.25,0.662c0.786-3.62,3.364-6.574,6.751-7.901V22.42   c0-8.284-6.716-15-15.001-15c-8.284,0-15,6.716-15,15v5.339C20.387,29.086,22.964,32.04,23.75,35.659z"/></g></svg>