<?xml version="1.0" ?><!DOCTYPE svg  PUBLIC '-//W3C//DTD SVG 1.1//EN'  'http://www.w3.org/Graphics/SVG/1.1/DTD/svg11.dtd'><svg enable-background="new 0 0 512 512" height="512px" id="Layer_1" version="1.1" viewBox="0 0 512 512" width="512px" xml:space="preserve" xmlns="http://www.w3.org/2000/svg" xmlns:xlink="http://www.w3.org/1999/xlink"><path d="M250.931,212.522c0.027-0.043,0.066-0.081,0.094-0.124c-0.105-0.503-0.191-0.946-0.23-1.26  C250.843,211.598,250.892,212.059,250.931,212.522 M349.254,319.881c0.004,0,0.004-0.004,0.004-0.007  c-0.015-0.007-0.06-0.007-0.068-0.022C349.204,319.867,349.239,319.867,349.254,319.881 M351.771,320.195  c-0.609-0.097-1.977,0.082-2.517-0.315C348.92,321.033,349.423,321.468,351.771,320.195 M255.999,0.001  C114.613,0.001,0,114.615,0,256c0,141.384,114.613,255.999,255.999,255.999C397.383,511.999,512,397.384,512,256  C512,114.615,397.383,0.001,255.999,0.001 M419.518,100.007c-8.82,0.263-14.963,0.283-22.051,5.173  c-2.854,1.972-4.791,4.588-8.415,5.605c-3.249,0.913-6.757,0.113-9.98,1.206c-11.633,3.947-9.788,28.859-25.115,25.098  c-7.201-1.767-12.272-10.274-15.897-15.829c-3.191-4.888-9.005-8.931-5.077-15.047c-1.79,0.459-3.7-0.064-5.463,0.271  c2.456-5.395,10.688-4.92,12.058-7.676c3.412-6.906-9.392-7.628-13.019-8.583c4.37-4.661,6.583,1.565,10.896,0.507  c4.146-1.019-2.189-6.479-4.674-7.091c-0.894-0.222-15.492,4.033-7.042-3.528c-10.431-6.648-20.855-13.297-31.289-19.95  c-1.757,7.398,13.882,11.602,18.989,14.21c-0.794,3.054-5.545,7.503-9.183,6.199c-3.426-1.228-2.034-6.907-7.209-6.338  c-3.693,8.591,7.812,6.08,8.88,11.345c1.216,5.995-4.349,3.456-6.489,3.35c-0.509-0.024-4.497-4.154-4.714-1.028  c-0.26,3.709,6.363,2.264,6.828,6.011c-7.71,0.313-11.649-2.472-17.927-6.643c-7.326-4.862-11.085-4.422-20.061-4.422  c2.685-1.104,6.381-1.922,8.677-3.697c1.254-0.97,6.175-5.753,6.498-6.822c1.393-4.604-0.073-4.257-4.481-7.275  c-3.92-2.679-8.671-7.492-13.418-8.44c-17.202-3.437-5.306,15.532-18.364,18.146c0.223,0.01,0.466,0.023,0.658,0.023h-0.748  c0.032-0.005,0.06-0.016,0.089-0.023c-3.021-0.109-8.682-0.844-10.628,0.75c-1.375,1.123-1.489,5.631-3.025,7.262  c-2.733,2.913-6.809,3.497-10.069,5.598c-3.185,2.051-10.204,7.316-12.073,10.89c-6.892,13.167,15.526,17.253,24.025,21.1  c3.84,1.74,15.062,4.121,17.153,7.026c2.803,3.903-2.416,7.562,3.437,10.304c1.869,0.874,5.726,1.051,7.335-0.759  c2.615-2.947-1.063-3.614-1.689-7.019c-1.214-6.558,0.785-3.953,4.083-6.388c6.72-4.961,5.206-5.265,2.79-13.172  c-1.124-3.683-5.358-13.953-1.636-16.67c4.861-3.547,15.222,1.92,18.947,2.377c4.337,0.533,6.797,6.54,9.162,8.997  c1.569,1.63,4.375,5.093,7.118,4.717c4.353-0.594,2.529-4.399,5.055-6.153c6.771-4.698,8.554,1.681,11.253,8.063  c2.539,5.991,4.94,8.215,9.459,12.06c2.099,1.79,11.296,8.178,10.428,12.113c-0.588,2.652-11.094,6.672-13.901,7.564  c-10.271,3.25-29.534-5.326-31.602,10.96c3.982-1.486,15.316-10.743,18.715-6.354c1.551,1.991-1.229,4.891-0.574,6.868  c1.938,5.929,6.511,3.863,11.305,2.905c-0.325,0.204-0.662,0.383-1.015,0.54c6.55-3.367,5.869-2.664,8.873-8.125  c0.981-1.782,2.441-6.099,3.825-7.376c4.763-4.38,5.495-1.364,8.442,2.016c0.773,0.89,8.066,11.391,5.47,10.868  c-8.481-1.703-16.627-1.474-23.662,3.164c-4.053,2.677-7.887,6.29-12.727,8.069c-1.16,0.423-9.752,1.238-8.736-0.229  c1.481-2.134,6.586-3.551,8.599-5.854c-5.58-2.298-10.234,2.773-14.621,5.742c-4.654,2.201-5.736,6.304-9.698,9.901  c-1.729,1.568-5,1.833-6.698,3.9c-1.648,2.001-1.854,5.15-3.414,7.053c-1.095,1.33-3.902,0.524-5.045,2.532  c-1.491,2.623,1.362,5.054,0.737,6.946c-1.145,3.431-7.672,6.341-10.182,8.811c0.336-0.322,0.668-0.653,0.996-0.988  c-2.515,2.637-5.699,4.579-7.663,7.633c0.902,4.313,3.744,14.595,2.952,16.961c-2.615,7.785-7.697-4.233-9.758-7.338  c-7.081-10.669-21.232-3.528-30.9-2.646c-12.363,1.131-24.473,17.178-16.847,30.203c3.661,6.248,9.82,8.664,16.883,7.217  c6.286-1.286,8.174-10.082,14.094-10.24c10.88-0.291,0.24,10.66-0.701,14.679c-0.87,3.722,1.357,4.067,5.188,4.988  c2.831,0.678,6.838-1.209,9.291,0.406c1.545,1.021,1.471,6.608,3.598,4.845c-4.185,3.468-3.208,11.691,1.082,14.666  c4.757,3.299,10.359,0.242,15.338,1.512c9.403,2.397,4.913-0.716,13.171-5.701c5.572-3.36,6.487,0.633,10.296,0.646  c2.592,0.012,4.238-3.727,8.573-2.637c3.534,0.89,4.93,3.616,9.148,4.243c1.729,0.254,3.515-0.649,5.164-0.468  c7.802,0.865,13.774,5.852,19.923,10.359c5.066,3.71,8.423,2.958,14.34,4.651c4.324,1.232,12.302,7.488,11.895,12.982  c-0.074,0.98-3.853,5.925-4.498,8.146c1.106,0.769,8.802-0.953,11.053-1.116c-0.739,0.862-5.981,4.546-5.981,2.591  c0,1,3.709,3.058,4.612,3.699c2.733-8.875,7.223-3.165,12.625-0.967c4.594,1.87,10.248,1.971,15.146,3.139  c4.162,0.992,13.333,3.798,16.415,7.198c3.71,4.09,1.146,10.735-1.6,14.809c-3.592,5.336-9.006,7.386-11.245,13.663  c-1.771,4.977-0.44,10.003-1.452,15.52c-1.367,7.465-2.464,4.849-7.271,9.404c-4.047,3.835-0.069,3.169-5.576,5.612  c-5.535,2.462-10.405,1.729-14.237,7.798c0.153-0.381,0.278-0.766,0.385-1.164c-1.616,2.263-2.425,6.896-3.19,8.414  c-1.933,3.879-4.595,6.326-7.649,9.557c-1.172,1.236-11.934,15.938-12.556,14.757c-0.8-1.535-9.284,1.543-9.689-0.648  c0.338,1.842-0.08,1.225,2.026,2.287c-1.952,12.082-7.061,13.883-18.928,14.007c1.02,5.808-4.3,4.647-6.771,7.771  c-1.445,1.824-2.136,6.949-3.139,9.311c-0.624,1.482-5.257,7.423-5.257,8.604c-0.005,1.084,1.557,2.671,3.021,4.195  c-8.365,1.653-16.895,2.81-25.56,3.512c1.623-2.043,2.014-3.837-3.152-4.084c1.383-3.755,4.627-5.897,6.004-9.536  c0.652-1.717,0.112-2.396,0.663-4.095c1.891-5.872,1.07-3.657,0.003-8.219c-2.493-10.686,0.891-13.61,3.803-23.394  c2.991-10.06,2.713-23.095,4.628-33.928c0.909-5.185,2.4-15.968,0.6-20.869c-2.027-5.519-10.951-9.863-15.039-13.576  c-5.785-5.27-8.86-10.968-13.155-17.482c-2.182-3.308-4.667-6.554-6.368-10.153c-3.639-7.693,0.002-3.111,0.614-7.652  c0.586-4.388-0.522-8.309,1.221-12.914c1.926-5.092,6.735-8.264,8.315-13.397c1.422-4.568,0.34-10.313-4.355-11.839  c-2.616-0.852-5.501,1.113-8.131,0.683c-3.667-0.593-7.815-3.33-10.691-5.52c-4.016-3.057-5.521-8.031-9.798-10.929  c-3.579-2.42-6.126-0.972-9.955-2.103c-3.994-1.177-6.459-6.104-9.682-7.646c-4.835-2.314-7.559,1.006-12.663,0.337  c-4.341-0.57-10.96-5.382-15.016-7.198c-8.247-3.69-13.269-7.764-16.565-16.133c-2.825-7.178-6.941-10.525-11.79-16.505  c-4.911-6.057-6.45-11.215-14.021-12.832c-0.889-0.191,1.853,6.362,2.134,6.884c2.707,5.011,6.768,9.587,10.036,14.25  c4.808,6.87,2.759,8.159-2.131,1.516c-5.592-7.599-12.083-15.157-16.934-23.204c-1.834-3.042-1.481-5.01-4.505-7.899  c-2.924-2.79-6.749-4.146-9.692-6.801c-10.589-9.524-12.515-22.236-11.307-35.814c0.393-4.422,1.991-7.964,1.286-12.216  c-0.582-3.533-2.668-6.452-5.272-9.056c-0.84-1.335-2.947-4.628-3.07-4.839c-2.403-3.992-4.273-7.92-8.093-11.198  c-2.19-1.884-7.86-6.295-13.198-9.993c23.982-29.908,55.363-53.613,91.362-68.332c0.288,1.808,1.064,3.616,2.229,5.345  c2.961,4.391,5.781,4.043,11.558,5.26c-0.619,6.704-8.458,6.756-13.764,6.028c-6.333-0.866-12.996-2.971-18.483,2.581  c3.031,1.822,11.347,8.916,10.244,1.502c6.065-0.303,11.931-0.485,17.867,0.24c2.379,0.293,10.347,2.966,12.507,1.747  c0.906-0.512,1.872-4.982,2.831-6.358c-1.692,0.009-3.507-0.844-5.191-0.683c3.931-5.032,7.847-1.085,12.849,1.229  c-5.507,3.348-2.242,11.367,3.144,4.85c4.422-5.356-1.083-9.244-6.699-12.366c5.662-7.082,9.155-7.722,14.482,0.273  c0.879-4.932,4.857-2.958,9.017-2.594v-1.232c-1.832,0.042-3.787-1.01-5.598-0.818c4.237-6.76,1.532-8.305,7.589-10.509  c4.824-1.758,18.584-0.124,20.278-4.657c-9.629,1.873-21.263,2.32-29.952,6.698c-3.745,1.89-8.208,7.848-11.949,3.972  c-3.833-3.972,2.742-10.361,6.107-12.312h-0.805c15.237-3.24,31.017-4.979,47.207-4.979c10.462,0,20.74,0.773,30.833,2.152  c-3.493,1.833-0.909,3.073-3.454,4.946c-4.856,3.573-13.48,6.553-19.26,8.811c7.349-0.02,25.136,6.89,28.557-3.418  c-2.372-0.361-4.738-0.727-7.109-1.092c4.428-2.936,9.366-5.313,14.552-7.055c46.788,9.271,88.407,33.002,120.065,66.307  C419.96,100.007,419.735,99.999,419.518,100.007 M460.949,189.886c0.42-0.9,1.404-1.196,1.813-1.939  c0.854-1.561,0.664-2.62,1.717-3.959c1.128-1.446,2.647-1.801,3.906-2.931c0.507-0.457,0.79-0.877,1.023-1.308  c3.775,10.54,6.785,21.434,8.975,32.622c-0.068,0.079-0.104,0.201-0.187,0.268c-0.55,0.434-4.138,0.969-4.874,0.994  c-2.6,0.101-4.529-1.625-6.395-3.248c-1.896-1.649-4.131-3.855-5.48-5.988c-1.441-2.28-0.551-4.621-0.448-7.225  C461.085,194.979,460.021,191.859,460.949,189.886 M463.878,307.263c-4.397-3.822-9.585-8.942-12.711-13.892  c-3.341-5.276-1.282-10.703-1.04-16.746c0.205-5.082-2.277-12.314-0.118-16.89c0.991-2.089,3.265-2.78,4.199-4.493  c1.989-3.624,1.546-6.072,3.987-9.189c2.617-3.347,6.137-4.169,9.054-6.793c3.054-2.753,2.97-4.922,4.904-8.449  c1.414-2.576,4.74-6.876,7.89-9.122c1.708,11.192,2.599,22.65,2.599,34.311c0,20.173-2.685,39.726-7.656,58.356  C470.747,313.261,467.26,310.208,463.878,307.263"/></svg>